<svg width="14" height="12" viewBox="0 0 14 12" fill="none" xmlns="http://www.w3.org/2000/svg">
<path d="M3.25 10.5V2.289C3.24995 2.11449 3.30786 1.94491 3.41464 1.80689C3.52142 1.66887 3.67102 1.57022 3.83995 1.52644C4.00887 1.48267 4.18756 1.49624 4.34793 1.56503C4.50831 1.63382 4.64129 1.75393 4.726 1.9065L9.274 10.0935C9.35871 10.2461 9.49169 10.3662 9.65207 10.435C9.81244 10.5038 9.99113 10.5173 10.1601 10.4736C10.329 10.4298 10.4786 10.3311 10.5854 10.1931C10.6921 10.0551 10.7501 9.88551 10.75 9.711V1.5M1.75 4.5H12.25M1.75 7.5H12.25" stroke="black" stroke-width="2" stroke-linecap="round" stroke-linejoin="round"/>
</svg>
